<svg width="512" height="512" viewBox="0 0 512 512" fill="none" xmlns="http://www.w3.org/2000/svg" xmlns:xlink="http://www.w3.org/1999/xlink" class="h-full w-full" id="iconWithBackground"><rect id="r4" width="480" height="480" x="16" y="16" rx="256" fill="#14a800" stroke="#ffffff" stroke-width="32" stroke-opacity="100%" paint-order="stroke"></rect><defs><linearGradient id="linearGradient" gradientUnits="userSpaceOnUse" gradientTransform="rotate(0)" style="transform-origin: center center;"><stop stop-color="#8e2de2"></stop><stop offset="1" stop-color="#4a00e0"></stop></linearGradient><radialGradient id="glare" cx="0" cy="0" r="1" gradientUnits="userSpaceOnUse" gradientTransform="translate(256) rotate(90) scale(512)"><stop stop-color="white"></stop><stop offset="1" stop-color="white" stop-opacity="0"></stop></radialGradient><clipPath id="clip"><use xlink:href="#r4"></use></clipPath></defs><svg xmlns="http://www.w3.org/2000/svg" xmlns:xlink="http://www.w3.org/1999/xlink" aria-hidden="true" role="img" x="78" y="78" class="iconify iconify--simple-icons" width="356" height="356" viewBox="0 0 24 24" style="color: rgb(255, 255, 255);"><path fill="currentColor" d="M18.561 13.158c-1.102 0-2.135-.467-3.074-1.227l.228-1.076l.008-.042c.207-1.143.849-3.06 2.839-3.06a2.705 2.705 0 0 1 2.703 2.703a2.707 2.707 0 0 1-2.704 2.702zm0-8.14c-2.539 0-4.51 1.649-5.31 4.366c-1.22-1.834-2.148-4.036-2.687-5.892H7.828v7.112a2.551 2.551 0 0 1-2.547 2.548a2.55 2.55 0 0 1-2.545-2.548V3.492H0v7.112c0 2.914 2.37 5.303 5.281 5.303c2.913 0 5.283-2.389 5.283-5.303v-1.19c.529 1.107 1.182 2.229 1.974 3.221l-1.673 7.873h2.797l1.213-5.71c1.063.679 2.285 1.109 3.686 1.109c3 0 5.439-2.452 5.439-5.45c0-3-2.439-5.439-5.439-5.439z"></path></svg></svg>