<svg data-v-6e2f00a0="" width="512" height="512" viewBox="0 0 512 512" fill="none" xmlns="http://www.w3.org/2000/svg" xmlns:xlink="http://www.w3.org/1999/xlink" class="h-full w-full"><rect id="r4" width="480" height="480" x="16" y="16" rx="256" fill="#fcfdfd" stroke="#505b61" stroke-width="32" stroke-opacity="100%" paint-order="stroke"></rect><!----><clipPath id="clip"><use xlink:href="#r4"></use></clipPath><defs><linearGradient id="linearGradient" gradientUnits="userSpaceOnUse" gradientTransform="rotate(45)" style="transform-origin: center center;"><stop stop-color="#8e2de2"></stop><stop offset="1" stop-color="#4a00e0"></stop></linearGradient><radialGradient id="glare" cx="0" cy="0" r="1" gradientUnits="userSpaceOnUse" gradientTransform="translate(256) rotate(90) scale(512)"><stop stop-color="white"></stop><stop offset="1" stop-color="white" stop-opacity="0"></stop></radialGradient></defs><svg data-v-c3ad5561="" data-v-6e2f00a0="" xmlns="http://www.w3.org/2000/svg" xmlns:xlink="http://www.w3.org/1999/xlink" aria-hidden="true" role="img" class="icon" x="78.5" y="78.5" width="355px" height="355px" viewBox="0 0 24 24" style="color: rgb(80, 91, 97);"><path fill="currentColor" d="M17.47 6.07a4.54 4.54 0 0 0-4.38 3.69a19.9 19.9 0 0 1-2.28-4.9H8.55v6a2.14 2.14 0 1 1-4.28 0v-6L2 4.91v6a4.4 4.4 0 1 0 8.8-.05v-1a20.55 20.55 0 0 0 1.65 2.7l-1.38 6.61h2.32l1-4.81a5.61 5.61 0 0 0 3.11.89a4.57 4.57 0 0 0 0-9.14zm0 6.83a4.09 4.09 0 0 1-2.55-1l.23-.91v-.05c.16-1 .66-2.6 2.35-2.6a2.25 2.25 0 0 1 2.27 2.24a2.41 2.41 0 0 1-2.27 2.32z"></path></svg></svg>